<svg width="0" height="0" class="hidden">
  <symbol fill="none" xmlns="http://www.w3.org/2000/svg" viewBox="0 0 18 18" id="edit">
    <path d="M5.25 5.25H4.5C4.10218 5.25 3.72064 5.40804 3.43934 5.68934C3.15804 5.97064 3 6.35218 3 6.75V13.5C3 13.8978 3.15804 14.2794 3.43934 14.5607C3.72064 14.842 4.10218 15 4.5 15H11.25C11.6478 15 12.0294 14.842 12.3107 14.5607C12.592 14.2794 12.75 13.8978 12.75 13.5V12.75" stroke="white" stroke-width="1.5" stroke-linecap="round" stroke-linejoin="round"></path>
    <path d="M12 3.75008L14.25 6.00008M15.2888 4.93883C15.5841 4.64345 15.7501 4.24282 15.7501 3.82508C15.7501 3.40734 15.5841 3.00672 15.2888 2.71133C14.9934 2.41595 14.5927 2.25 14.175 2.25C13.7573 2.25 13.3566 2.41595 13.0613 2.71133L6.75 9.00008V11.2501H9L15.2888 4.93883Z" stroke="white" stroke-width="1.5" stroke-linecap="round" stroke-linejoin="round"></path>
  </symbol>
  <symbol fill="none" xmlns="http://www.w3.org/2000/svg" viewBox="0 0 30 24" id="email">
    <path d="M3.66732 23.3333C2.88815 23.3333 2.22137 23.0561 1.66698 22.5017C1.1126 21.9474 0.834929 21.2801 0.833984 20.5V3.49999C0.833984 2.72082 1.11165 2.05405 1.66698 1.49966C2.22232 0.945267 2.8891 0.667601 3.66732 0.666656H26.334C27.1131 0.666656 27.7804 0.944323 28.3357 1.49966C28.8911 2.05499 29.1683 2.72177 29.1673 3.49999V20.5C29.1673 21.2792 28.8901 21.9464 28.3357 22.5017C27.7813 23.0571 27.1141 23.3343 26.334 23.3333H3.66732ZM15.0007 13.4167L3.66732 6.33332V20.5H26.334V6.33332L15.0007 13.4167ZM15.0007 10.5833L26.334 3.49999H3.66732L15.0007 10.5833ZM3.66732 6.33332V3.49999V20.5V6.33332Z" fill="currentColor"></path>
  </symbol>
  <symbol fill="none" xmlns="http://www.w3.org/2000/svg" viewBox="0 0 14 14" id="info">
    <path d="M14 7C14 10.866 10.866 14 7 14C3.13401 14 0 10.866 0 7C0 3.13401 3.13401 0 7 0C10.866 0 14 3.13401 14 7Z" fill="#555555"></path>
    <path d="M6.11111 5H6.55556L7.88889 5.84V11H6.11111V5ZM6 3.044V2.9C6 2.408 6.21111 2 6.95556 2H7.04444C7.78889 2 8 2.408 8 2.9V3.044C8 3.536 7.78889 3.944 7.04444 3.944H6.95556C6.21111 3.944 6 3.536 6 3.044Z" fill="white"></path>
  </symbol>
  <symbol fill="none" xmlns="http://www.w3.org/2000/svg" viewBox="0 0 24 31" id="lock">
    <path d="M11.9993 23.0833C11.2479 23.0833 10.5272 22.7848 9.99588 22.2535C9.46453 21.7221 9.16602 21.0015 9.16602 20.25C9.16602 18.6775 10.4268 17.4167 11.9993 17.4167C12.7508 17.4167 13.4715 17.7152 14.0028 18.2465C14.5342 18.7779 14.8327 19.4986 14.8327 20.25C14.8327 21.0015 14.5342 21.7221 14.0028 22.2535C13.4715 22.7848 12.7508 23.0833 11.9993 23.0833ZM20.4993 27.3333V13.1667H3.49935V27.3333H20.4993ZM20.4993 10.3333C21.2508 10.3333 21.9715 10.6318 22.5028 11.1632C23.0342 11.6946 23.3327 12.4152 23.3327 13.1667V27.3333C23.3327 28.0848 23.0342 28.8055 22.5028 29.3368C21.9715 29.8682 21.2508 30.1667 20.4993 30.1667H3.49935C2.7479 30.1667 2.02723 29.8682 1.49588 29.3368C0.964527 28.8055 0.666016 28.0848 0.666016 27.3333V13.1667C0.666016 11.5942 1.92685 10.3333 3.49935 10.3333H4.91602V7.5C4.91602 5.62139 5.66229 3.81971 6.99068 2.49133C8.31906 1.16295 10.1207 0.416672 11.9993 0.416672C12.9295 0.416672 13.8506 0.599888 14.71 0.955858C15.5694 1.31183 16.3503 1.83358 17.008 2.49133C17.6658 3.14908 18.1875 3.92994 18.5435 4.78933C18.8995 5.64872 19.0827 6.56981 19.0827 7.5V10.3333H20.4993ZM11.9993 3.25001C10.8722 3.25001 9.79117 3.69777 8.99414 4.4948C8.19711 5.29183 7.74935 6.37283 7.74935 7.5V10.3333H16.2493V7.5C16.2493 6.37283 15.8016 5.29183 15.0046 4.4948C14.2075 3.69777 13.1265 3.25001 11.9993 3.25001Z" fill="currentColor"></path>
  </symbol>
  <symbol fill="none" xmlns="http://www.w3.org/2000/svg" viewBox="0 0 24 24" id="search">
    <path d="M17.6132 15.5158C18.7994 13.901 19.5 11.9073 19.5 9.75C19.5 4.36522 15.1348 0 9.75 0C4.36522 0 0 4.36522 0 9.75C0 15.1348 4.36522 19.5 9.75 19.5C11.9079 19.5 13.902 18.799 15.5171 17.6123L15.5158 17.6132C15.5601 17.6732 15.6093 17.7307 15.6636 17.785L21.4393 23.5607C22.0251 24.1465 22.9749 24.1465 23.5607 23.5607C24.1465 22.9749 24.1465 22.0251 23.5607 21.4393L17.785 15.6636C17.7307 15.6093 17.6732 15.5601 17.6132 15.5158ZM18 9.75C18 14.3063 14.3063 18 9.75 18C5.19365 18 1.5 14.3063 1.5 9.75C1.5 5.19365 5.19365 1.5 9.75 1.5C14.3063 1.5 18 5.19365 18 9.75Z" fill="white"></path>
  </symbol>
  <symbol fill="none" xmlns="http://www.w3.org/2000/svg" viewBox="0 0 24 24" id="confirm-edit">
    <rect x="0.5" y="0.5" width="23" height="23" rx="3.5" stroke="#793AFF"></rect>
    <path d="M18.5227 6.14171C18.3286 5.95277 18.0193 5.95276 17.8252 6.1417L10.3702 13.3981C10.176 13.587 9.86678 13.587 9.67266 13.3981L7.19778 11C7.00366 10.8111 6.6944 10.8111 6.50028 11L4.62391 12.8264C4.42224 13.0227 4.42224 13.3467 4.62391 13.5429L7.42818 16.2616L9.6896 18.4628C9.88371 18.6517 10.193 18.6517 10.3871 18.4628L12.6316 16.2781L20.416 8.70117C20.6177 8.50487 20.6177 8.18087 20.416 7.98458L18.5227 6.14171Z" fill="#793AFF"></path>
  </symbol>
  <symbol fill="none" xmlns="http://www.w3.org/2000/svg" viewBox="0 0 24 24" id="add-outline">
    <path d="M12 4C16.411 4 20 7.589 20 12C20 16.411 16.411 20 12 20C7.589 20 4 16.411 4 12C4 7.589 7.589 4 12 4ZM12 2C6.477 2 2 6.477 2 12C2 17.523 6.477 22 12 22C17.523 22 22 17.523 22 12C22 6.477 17.523 2 12 2ZM17 11H13V7H11V11H7V13H11V17H13V13H17V11Z" fill="white"></path>
  </symbol>
  <symbol fill="none" xmlns="http://www.w3.org/2000/svg" viewBox="0 0 16 16" id="caret-down">
    <path d="M7.24677 11.1399L2.45054 5.6585C1.88478 5.01192 2.34396 4 3.20312 4H12.7956C13.6547 4 14.1139 5.01192 13.5482 5.6585L8.75193 11.1399C8.35352 11.5952 7.64518 11.5952 7.24677 11.1399Z" fill="white"></path>
  </symbol>
  <symbol fill="none" xmlns="http://www.w3.org/2000/svg" viewBox="0 0 26 26" id="copy">
    <g clip-path="url(#clip0_140_1511)">
      <path d="M7.8 7.8V2.6C7.8 1.17 8.97 0 10.4 0H23.4C24.0896 0 24.7509 0.273928 25.2385 0.761522C25.7261 1.24912 26 1.91044 26 2.6V15.6C26 16.2896 25.7261 16.9509 25.2385 17.4385C24.7509 17.9261 24.0896 18.2 23.4 18.2H18.2V23.4C18.2 24.0896 17.9261 24.7509 17.4385 25.2385C16.9509 25.7261 16.2896 26 15.6 26H2.6C1.91044 26 1.24912 25.7261 0.761522 25.2385C0.273928 24.7509 0 24.0896 0 23.4V10.4C0 8.97 1.17 7.8 2.6 7.8H7.8ZM10.4 7.8H15.6C16.2896 7.8 16.9509 8.07393 17.4385 8.56152C17.9261 9.04912 18.2 9.71044 18.2 10.4V15.6H23.4V2.6H10.4V7.8ZM2.6 10.4V23.4H15.6V10.4H2.6Z" fill="#FEF7FF"></path>
    </g>
    <defs>
      <clipPath id="clip0_140_1511">
        <rect width="26" height="26" fill="white"></rect>
      </clipPath>
    </defs>
  </symbol>
  <symbol fill="none" xmlns="http://www.w3.org/2000/svg" viewBox="0 0 22 22" id="close">
    <path d="M8.80002 11.0001L0.000237369 19.8L2.20022 22L11 13.2001L19.7998 22L21.9998 19.8L13.2 11.0001L22 2.19999L19.8001 0L11 8.80012L2.19998 2.37371e-05L0 2.20002L8.80002 11.0001Z" fill="currentColor"></path>
  </symbol>
</svg>