<svg width="0" height="0" class="hidden">
  <symbol fill="none" xmlns="http://www.w3.org/2000/svg" viewBox="0 0 34 34" id="account">
    <path fill-rule="evenodd" clip-rule="evenodd" d="M17.0007 0.333252C12.3965 0.333252 8.66732 4.06242 8.66732 8.66659C8.66732 13.2708 12.3965 16.9999 17.0007 16.9999C21.6048 16.9999 25.334 13.2708 25.334 8.66659C25.334 4.06242 21.6048 0.333252 17.0007 0.333252ZM21.1673 8.66659C21.1673 6.37492 19.2923 4.49992 17.0007 4.49992C14.709 4.49992 12.834 6.37492 12.834 8.66659C12.834 10.9583 14.709 12.8333 17.0007 12.8333C19.2923 12.8333 21.1673 10.9583 21.1673 8.66659ZM29.5007 27.4166C29.084 25.9374 22.6257 23.2499 17.0007 23.2499C11.3757 23.2499 4.91732 25.9374 4.50065 27.4374V29.4999H29.5007V27.4166ZM0.333984 27.4166C0.333984 21.8749 11.4382 19.0833 17.0007 19.0833C22.5632 19.0833 33.6673 21.8749 33.6673 27.4166V33.6666H0.333984V27.4166Z" fill="#FEF7FF"></path>
  </symbol>
  <symbol fill="none" xmlns="http://www.w3.org/2000/svg" viewBox="0 0 36 36" id="dashboard">
    <rect width="16" height="16" fill="white"></rect>
    <rect x="20" width="16" height="16" fill="white"></rect>
    <rect x="20" y="20" width="16" height="16" fill="white"></rect>
    <rect y="20" width="16" height="16" fill="white"></rect>
  </symbol>
  <symbol fill="none" xmlns="http://www.w3.org/2000/svg" viewBox="0 0 36 36" id="logout">
    <path d="M11.25 31.5L4.5 31.5L4.5 4.5L11.25 4.5L11.25 -1.08186e-06L4.5 -1.37691e-06C2.02501 -1.48509e-06 3.72618e-06 2.025 3.618e-06 4.5L2.43779e-06 31.5C2.3296e-06 33.975 2.025 36 4.5 36L11.25 36L11.25 31.5ZM24.75 6.75L21.5775 9.9225L27.3825 15.75L9 15.75L9 20.25L27.3825 20.25L21.5775 26.0775L24.75 29.25L36 18L24.75 6.75Z" fill="#FEF7FF"></path>
  </symbol>
  <symbol fill="none" xmlns="http://www.w3.org/2000/svg" viewBox="0 0 32 36" id="notification">
    <path d="M31.385 25.4735C30.005 24.0138 27.4228 21.818 27.4228 14.625C27.4228 9.16172 23.5314 4.78828 18.2843 3.71531V2.25C18.2843 1.00758 17.2614 0 16 0C14.7386 0 13.7157 1.00758 13.7157 2.25V3.71531C8.46859 4.78828 4.57718 9.16172 4.57718 14.625C4.57718 21.818 1.99504 24.0138 0.615047 25.4735C0.186477 25.927 -0.00352203 26.4691 4.93847e-05 27C0.0079065 28.1531 0.927189 29.25 2.2929 29.25H29.7071C31.0728 29.25 31.9928 28.1531 32 27C32.0035 26.4691 31.8135 25.9263 31.385 25.4735ZM4.82361 25.875C6.33932 23.9084 7.99645 20.6487 8.00431 14.6658C8.00431 14.6517 8.00002 14.6391 8.00002 14.625C8.00002 10.2755 11.5814 6.75 16 6.75C20.4186 6.75 24 10.2755 24 14.625C24 14.6391 23.9957 14.6517 23.9957 14.6658C24.0035 20.6494 25.6607 23.9091 27.1764 25.875H4.82361ZM16 36C18.5228 36 20.5693 33.9855 20.5693 31.5H11.4307C11.4307 33.9855 13.4771 36 16 36Z" fill="#FEF7FF"></path>
  </symbol>
  <symbol fill="none" xmlns="http://www.w3.org/2000/svg" viewBox="0 0 36 36" id="partnership-program">
    <path d="M17.4418 0.148226C17.7877 -0.0494088 18.2123 -0.0494088 18.5582 0.148226L26.9957 4.96966C27.3462 5.16995 27.5625 5.54271 27.5625 5.94643V14.9364L35.4332 19.4339C35.7837 19.6342 36 20.007 36 20.4107V30.0536C36 30.4573 35.7837 30.83 35.4332 31.0303L26.9957 35.8518C26.6498 36.0494 26.2252 36.0494 25.8793 35.8518L18 31.3493L10.1207 35.8518C9.7748 36.0494 9.3502 36.0494 9.00434 35.8518L0.566844 31.0303C0.216322 30.83 0 30.4573 0 30.0536V20.4107C0 20.007 0.216322 19.6342 0.566844 19.4339L8.4375 14.9364V5.94643C8.4375 5.54271 8.65382 5.16995 9.00434 4.96966L17.4418 0.148226ZM9.5625 16.885L3.39251 20.4107L9.5625 23.9364L15.7325 20.4107L9.5625 16.885ZM16.875 22.3493L10.6875 25.885V32.9364L16.875 29.4007V22.3493ZM19.125 29.4007L25.3125 32.9364V25.885L19.125 22.3493V29.4007ZM20.2675 20.4107L26.4375 23.9364L32.6075 20.4107L26.4375 16.885L20.2675 20.4107ZM25.3125 14.9364V7.88501L19.125 11.4207V18.4721L25.3125 14.9364ZM16.875 18.4721V11.4207L10.6875 7.88501V14.9364L16.875 18.4721ZM11.83 5.94643L18 9.47214L24.17 5.94643L18 2.42072L11.83 5.94643ZM33.75 22.3493L27.5625 25.885V32.9364L33.75 29.4007V22.3493ZM8.4375 32.9364V25.885L2.25 22.3493V29.4007L8.4375 32.9364Z" fill="white"></path>
  </symbol>
  <symbol fill="none" xmlns="http://www.w3.org/2000/svg" viewBox="0 0 36 36" id="partnership-agreement">
    <path d="M12.375 15.75C11.7537 15.75 11.25 16.2537 11.25 16.875C11.25 17.4963 11.7537 18 12.375 18H23.625C24.2463 18 24.75 17.4963 24.75 16.875C24.75 16.2537 24.2463 15.75 23.625 15.75H12.375Z" fill="white"></path>
    <path d="M11.25 21.375C11.25 20.7537 11.7537 20.25 12.375 20.25H23.625C24.2463 20.25 24.75 20.7537 24.75 21.375C24.75 21.9963 24.2463 22.5 23.625 22.5H12.375C11.7537 22.5 11.25 21.9963 11.25 21.375Z" fill="white"></path>
    <path d="M11.25 25.875C11.25 25.2537 11.7537 24.75 12.375 24.75H16.875C17.4963 24.75 18 25.2537 18 25.875C18 26.4963 17.4963 27 16.875 27H12.375C11.7537 27 11.25 26.4963 11.25 25.875Z" fill="white"></path>
    <path d="M21.375 0H9C6.51472 0 4.5 2.01472 4.5 4.5V31.5C4.5 33.9853 6.51472 36 9 36H27C29.4853 36 31.5 33.9853 31.5 31.5V10.125L21.375 0ZM21.375 2.25V6.75C21.375 8.61396 22.886 10.125 24.75 10.125H29.25V31.5C29.25 32.7426 28.2426 33.75 27 33.75H9C7.75736 33.75 6.75 32.7426 6.75 31.5V4.5C6.75 3.25736 7.75736 2.25 9 2.25H21.375Z" fill="white"></path>
  </symbol>
  <symbol fill="none" xmlns="http://www.w3.org/2000/svg" viewBox="0 0 32 28" id="statistics">
    <path d="M7 20C6.44772 20 6 20.4477 6 21V23C6 23.5523 6.44772 24 7 24H9C9.55228 24 10 23.5523 10 23V21C10 20.4477 9.55228 20 9 20H7Z" fill="white"></path>
    <path d="M14 21C14 20.4477 14.4477 20 15 20H17C17.5523 20 18 20.4477 18 21V23C18 23.5523 17.5523 24 17 24H15C14.4477 24 14 23.5523 14 23V21Z" fill="white"></path>
    <path d="M23 20C22.4477 20 22 20.4477 22 21V23C22 23.5523 22.4477 24 23 24H25C25.5523 24 26 23.5523 26 23V21C26 20.4477 25.5523 20 25 20H23Z" fill="white"></path>
    <path d="M28 0C30.2091 0 32 1.79086 32 4V24C32 26.2091 30.2091 28 28 28H4C1.79086 28 0 26.2091 0 24V4C0 1.79086 1.79086 0 4 0H28ZM4 26H28C29.1046 26 30 25.1046 30 24V8H2V24C2 25.1046 2.89543 26 4 26ZM4 2C2.89543 2 2 2.89543 2 4V6H30V4C30 2.89543 29.1046 2 28 2H4Z" fill="white"></path>
  </symbol>
  <symbol fill="none" xmlns="http://www.w3.org/2000/svg" viewBox="0 0 36 30" id="sub-partnership-program">
    <path d="M32.2372 26.5511C33.3332 20.6471 35.4926 7.83853 35.9901 2.56836C36.0082 2.32247 35.9973 2.0396 35.9901 1.79767C35.9829 1.58017 35.9757 1.3957 35.9901 1.30092C35.9577 1.03399 35.8567 0.667085 35.5251 0.400274C35.1285 0.0667311 34.4976 0 34.2308 0C32.9691 0 31.0728 0.667085 21.8365 4.53636C18.6135 5.87053 12.1676 8.67245 2.46625 12.9086C0.905235 13.5424 0.0760602 14.1428 0.00756315 14.7432C-0.111405 15.7898 1.18643 16.193 2.96375 16.746L3.59825 16.9446C5.29265 17.5117 7.54945 18.1454 8.74634 18.1788C9.80985 18.2122 11.0067 17.7452 12.3334 16.8445C21.4039 10.7072 26.0581 7.60509 26.3573 7.53836L26.433 7.52637C26.6457 7.49312 26.8764 7.4567 27.0531 7.60509C27.1288 7.68403 27.1829 7.77995 27.2117 7.88457C27.2261 7.94327 27.2369 8.00378 27.2369 8.06429C27.2369 8.11157 27.2297 8.15884 27.2189 8.20544C27.0531 8.90589 18.5486 16.6778 18.0511 17.1782C16.1548 19.1128 14.0278 20.3135 17.3193 22.4817C18.6352 23.3519 19.6987 24.0774 20.755 24.7997C21.9663 25.6277 23.1668 26.4517 24.7278 27.485C26.588 28.7192 28.0517 30.1534 29.9768 29.9867C30.842 29.8866 31.7722 29.0527 32.2372 26.5511Z" fill="white"></path>
  </symbol>
  <symbol fill="none" xmlns="http://www.w3.org/2000/svg" viewBox="0 0 36 36" id="support">
    <path d="M18 3C9.729 3 3 9.729 3 18V24.2145C3 25.7505 4.3455 27 6 27H7.5C7.89782 27 8.27936 26.842 8.56066 26.5607C8.84196 26.2794 9 25.8978 9 25.5V17.7855C9 17.3877 8.84196 17.0061 8.56066 16.7248C8.27936 16.4435 7.89782 16.2855 7.5 16.2855H6.138C6.972 10.4805 11.967 6 18 6C24.033 6 29.028 10.4805 29.862 16.2855H28.5C28.1022 16.2855 27.7206 16.4435 27.4393 16.7248C27.158 17.0061 27 17.3877 27 17.7855V27C27 28.6545 25.6545 30 24 30H21V28.5H15V33H24C27.309 33 30 30.309 30 27C31.6545 27 33 25.7505 33 24.2145V18C33 9.729 26.271 3 18 3Z" fill="white"></path>
  </symbol>
  <symbol fill="none" xmlns="http://www.w3.org/2000/svg" viewBox="0 0 36 36" id="telegram">
    <path d="M18 0C8.064 0 0 8.064 0 18C0 27.936 8.064 36 18 36C27.936 36 36 27.936 36 18C36 8.064 27.936 0 18 0ZM26.352 12.24C26.082 15.084 24.912 21.996 24.318 25.182C24.066 26.532 23.562 26.982 23.094 27.036C22.05 27.126 21.258 26.352 20.25 25.686C18.666 24.642 17.766 23.994 16.236 22.986C14.454 21.816 15.606 21.168 16.632 20.124C16.902 19.854 21.51 15.66 21.6 15.282C21.6125 15.2247 21.6108 15.1653 21.5952 15.1088C21.5795 15.0524 21.5502 15.0006 21.51 14.958C21.402 14.868 21.258 14.904 21.132 14.922C20.97 14.958 18.45 16.632 13.536 19.944C12.816 20.43 12.168 20.682 11.592 20.664C10.944 20.646 9.72 20.304 8.802 19.998C7.668 19.638 6.786 19.44 6.858 18.81C6.894 18.486 7.344 18.162 8.19 17.82C13.446 15.534 16.938 14.022 18.684 13.302C23.688 11.214 24.714 10.854 25.398 10.854C25.542 10.854 25.884 10.89 26.1 11.07C26.28 11.214 26.334 11.412 26.352 11.556C26.334 11.664 26.37 11.988 26.352 12.24Z" fill="#FEF7FF"></path>
  </symbol>
  <symbol fill="none" xmlns="http://www.w3.org/2000/svg" viewBox="0 0 36 36" id="withdrawal">
    <path d="M18 18.75C16.6076 18.75 15.2723 19.3031 14.2877 20.2877C13.3031 21.2723 12.75 22.6076 12.75 24C12.75 25.3924 13.3031 26.7277 14.2877 27.7123C15.2723 28.6969 16.6076 29.25 18 29.25C19.3924 29.25 20.7277 28.6969 21.7123 27.7123C22.6969 26.7277 23.25 25.3924 23.25 24C23.25 22.6076 22.6969 21.2723 21.7123 20.2877C20.7277 19.3031 19.3924 18.75 18 18.75ZM15.75 24C15.75 23.4033 15.9871 22.831 16.409 22.409C16.831 21.9871 17.4033 21.75 18 21.75C18.5967 21.75 19.169 21.9871 19.591 22.409C20.0129 22.831 20.25 23.4033 20.25 24C20.25 24.5967 20.0129 25.169 19.591 25.591C19.169 26.0129 18.5967 26.25 18 26.25C17.4033 26.25 16.831 26.0129 16.409 25.591C15.9871 25.169 15.75 24.5967 15.75 24Z" fill="white"></path>
    <path d="M26.289 7.67403L21.5205 0.988525L3.987 14.9955L3.015 14.985V15H2.25V33H33.75V15H32.307L29.436 6.60153L26.289 7.67403ZM29.1375 15H14.0955L25.299 11.181L27.582 10.4505L29.1375 15ZM23.325 8.68502L11.76 12.627L20.919 5.31003L23.325 8.68502ZM5.25 27.2535V20.7435C5.88284 20.5193 6.45766 20.1566 6.93254 19.682C7.40743 19.2074 7.7704 18.6327 7.995 18H28.005C28.2295 18.633 28.5924 19.2078 29.0673 19.6827C29.5422 20.1576 30.1171 20.5205 30.75 20.745V27.255C30.1171 27.4795 29.5422 27.8424 29.0673 28.3173C28.5924 28.7922 28.2295 29.3671 28.005 30H7.998C7.77328 29.3665 7.40995 28.7912 6.93453 28.3161C6.45911 27.8409 5.8836 27.4779 5.25 27.2535Z" fill="white"></path>
  </symbol>
</svg>