<svg width="0" height="0" class="hidden">
  <symbol fill="none" xmlns="http://www.w3.org/2000/svg" viewBox="0 0 462 246" id="amount">
    <path d="M47.1225 142.873L43.8283 141.804C29.6634 137.21 22.5568 121.888 10.2037 114.256L0.417969 93.7669L10.2037 85.774C24.698 94.7909 36.2275 100.602 51.5454 105.571C75.9221 113.478 77.2398 108.727 77.2398 103.548C77.2398 96.6436 77.2398 91.4651 39.0276 79.0702L36.0628 78.1085L21.3359 62.0584L31.1216 54.0655L64.0632 44.8998L49.8983 41.1682L10.3684 28.346L0.582677 8.72015L10.3684 0.727234L98.6518 29.3637V55.2562L88.8661 63.2491L71.1456 66.8755C96.1812 79.4843 103.593 95.5252 103.593 110.37V113.823C103.593 134.019 86.6524 155.695 47.1225 142.873Z" fill="#793AFF"></path>
    <path d="M114.733 104.646V95.67C114.733 64.4263 133.69 37.2765 172.561 49.885L178.49 51.8084C217.361 64.417 228.232 93.4904 228.232 124.734V133.71C228.232 164.954 210.54 195.93 171.669 183.321L165.74 181.398C126.869 168.789 114.733 135.89 114.733 104.646ZM152.466 104.646C152.466 122.253 152.466 138.306 175.525 145.786C198.585 153.266 198.585 137.212 198.585 119.605C198.585 102.171 198.585 86.1177 175.525 78.6381C152.466 71.1584 152.466 87.2118 152.466 104.646Z" fill="#793AFF"></path>
    <path d="M231.649 141.703V132.727C231.649 101.483 252.234 75.7287 291.105 88.3373L297.035 90.2606C335.906 102.869 346.777 131.943 346.777 163.186V172.162C346.777 203.406 329.976 233.283 291.105 220.674V210.895C252.234 198.287 231.649 172.947 231.649 141.703ZM271.011 143.098C271.011 160.705 271.011 176.759 294.07 184.238C317.129 191.718 317.129 175.665 317.129 158.058C317.129 140.623 317.129 124.57 294.07 117.09C271.011 109.611 271.011 125.664 271.011 143.098Z" fill="#793AFF"></path>
    <path d="M461.582 212.681L451.796 220.674L427.218 201.535V237.534L417.433 245.527L412.394 232.726V196.727L377.866 185.527L368.081 177.984L377.866 169.991L412.394 181.191L402.609 153.012L412.394 145.019L427.218 149.827V185.999L461.582 197.146V212.681Z" fill="#793AFF"></path>
    <path d="M43.4067 141.717L40.1126 140.648C25.9477 136.054 12.7711 129.881 0.417969 122.249V93.7669C14.9123 102.784 26.4418 108.595 41.7597 113.564C66.1364 121.471 67.4541 116.72 67.4541 111.541C67.4541 104.636 67.4541 99.458 29.2419 87.0631L26.2771 86.1014L21.3359 62.0584L54.2775 52.8927L40.1126 49.1611L0.582677 36.3389V8.72015L88.8661 37.3566V63.2491L61.3599 74.8684C86.3955 87.4772 93.8074 103.518 93.8074 118.363V121.816C93.8074 142.012 82.9366 154.539 43.4067 141.717Z" fill="#BC9CFF"></path>
    <path d="M113.033 107.51V98.5343C113.033 67.2906 123.904 45.2694 162.775 57.878L168.704 59.8013C207.576 72.4099 218.446 101.483 218.446 132.727V141.703C218.446 172.947 207.576 194.968 168.704 182.359L162.775 180.436C123.904 167.827 113.033 138.754 113.033 107.51ZM142.681 112.639C142.681 130.246 142.681 146.299 165.74 153.779C188.799 161.259 188.799 145.205 188.799 127.598C188.799 110.164 188.799 94.1106 165.74 86.631C142.681 79.1513 142.681 95.2047 142.681 112.639Z" fill="#BC9CFF"></path>
    <path d="M231.578 145.963V136.986C231.578 105.743 242.449 83.7216 281.32 96.3302L287.249 98.2535C326.12 110.862 336.991 139.936 336.991 171.179V180.155C336.991 211.399 326.12 233.42 287.249 220.812L281.32 218.888C242.449 206.28 231.578 177.206 231.578 145.963ZM261.225 151.091C261.225 168.698 261.225 184.752 284.284 192.231C307.343 199.711 307.343 183.658 307.343 166.051C307.343 148.616 307.343 132.563 284.284 125.083C261.225 117.604 261.225 133.657 261.225 151.091Z" fill="#BC9CFF"></path>
    <path d="M451.796 220.674L417.433 209.528V245.527L402.609 240.719V204.719L368.081 193.52V177.984L402.609 189.184V153.012L417.433 157.82V193.992L451.796 205.139V220.674Z" fill="#BC9CFF"></path>
  </symbol>
  <symbol fill="none" xmlns="http://www.w3.org/2000/svg" viewBox="0 0 215 476" id="lighting">
    <path d="M101.061 270.871L205.969 475.628L214.51 461.091L188.642 177.416L105.224 220.243L8.85713 0.948187L0.316176 15.4853L17.6432 313.698L101.061 270.871Z" fill="#793AFF"></path>
    <path d="M109.602 256.334L214.51 461.091L197.183 162.879L113.765 205.705L8.85713 0.948187L26.1842 299.16L109.602 256.334Z" fill="#BC9CFF"></path>
  </symbol>
  <symbol fill="none" xmlns="http://www.w3.org/2000/svg" viewBox="0 0 338 284" id="partners">
    <path d="M180.418 239.027C180.418 239.027 214.446 232.722 214.446 212.182C214.446 191.643 180.418 136.328 100.296 154.809C20.173 173.291 0.142425 239.531 0.142425 260.071C0.142425 280.611 29.2661 285.608 37.0075 283.106C98.1162 263.358 180.418 239.027 180.418 239.027Z" fill="#793AFF"></path>
    <path d="M100.296 142.818C67.7912 142.818 40.2037 120.543 40.2037 86.5116C40.2037 52.4802 67.1077 18.6863 100.296 11.0309C133.483 3.37545 173.33 24.1833 173.33 58.2148C173.33 92.2462 133.483 135.163 100.296 142.818Z" fill="#793AFF"></path>
    <path d="M216.145 230.785C218.966 224.3 220.479 217.033 220.479 209.246C220.479 181.405 205.594 159.354 180.418 145.226C191.432 139.073 205.554 130.529 220.479 127.087C300.602 108.605 335.524 165.119 335.524 185.659C335.524 206.198 300.602 211.304 300.602 211.304L232.98 237.902L216.145 230.785Z" fill="#793AFF"></path>
    <path d="M235.489 112.64C216.145 117.102 180.418 92.7979 180.418 64.4384C180.418 36.0788 202.838 7.91725 230.495 1.53774C258.151 -4.84177 297.215 15.623 297.215 43.9825C297.215 72.3421 263.145 106.261 235.489 112.64Z" fill="#793AFF"></path>
    <path d="M197.252 246.143C197.252 246.143 217.283 241.522 217.283 220.983C217.283 200.443 197.252 143.444 117.13 161.926C37.0075 180.407 16.9769 246.647 16.9769 267.187C16.9769 287.727 37.0075 283.106 37.0075 283.106L197.252 246.143Z" fill="#BC9CFF"></path>
    <path d="M117.13 141.386C83.9422 149.041 57.0382 127.659 57.0382 93.6278C57.0382 59.5963 83.9422 25.8024 117.13 18.147C150.318 10.4916 177.222 31.8736 177.222 65.9051C177.222 99.9365 150.318 133.73 117.13 141.386Z" fill="#BC9CFF"></path>
    <path d="M232.98 237.902C235.8 231.416 237.314 224.15 237.314 216.362C237.314 188.521 223.712 163.027 198.536 148.898C209.549 142.745 222.389 137.646 237.314 134.203C317.436 115.721 337.467 172.72 337.467 193.26C337.467 213.8 317.436 218.42 317.436 218.42L232.98 237.902Z" fill="#BC9CFF"></path>
    <path d="M247.329 111.353C219.673 117.732 197.252 99.9141 197.252 71.5545C197.252 43.195 219.673 15.0334 247.329 8.65389C274.986 2.27438 297.406 20.0927 297.406 48.4523C297.406 76.8118 274.986 104.973 247.329 111.353Z" fill="#BC9CFF"></path>
  </symbol>
</svg>