<svg width="0" height="0" class="hidden">
  <symbol fill="none" xmlns="http://www.w3.org/2000/svg" viewBox="0 0 48 48" id="fluent_money_model_1">
    <path d="M48 9V39H3V33H0V6H42V9H48ZM36 9C36 9.42188 36.0781 9.8125 36.2344 10.1719C36.3906 10.5312 36.6016 10.8438 36.8672 11.1094C37.1328 11.375 37.4531 11.5938 37.8281 11.7656C38.2031 11.9375 38.5938 12.0156 39 12V9H36ZM3 12C3.42188 12 3.8125 11.9219 4.17188 11.7656C4.53125 11.6094 4.84375 11.3984 5.10938 11.1328C5.375 10.8672 5.59375 10.5469 5.76562 10.1719C5.9375 9.79688 6.01562 9.40625 6 9H3V12ZM3 24C3.82812 24 4.60156 24.1562 5.32031 24.4688C6.03906 24.7812 6.67969 25.2109 7.24219 25.7578C7.80469 26.3047 8.23438 26.9375 8.53125 27.6562C8.82812 28.375 8.98438 29.1562 9 30H33C33 29.1719 33.1562 28.3984 33.4688 27.6797C33.7812 26.9609 34.2109 26.3203 34.7578 25.7578C35.3047 25.1953 35.9375 24.7656 36.6562 24.4688C37.375 24.1719 38.1562 24.0156 39 24V15C38.1719 15 37.3984 14.8438 36.6797 14.5312C35.9609 14.2188 35.3203 13.7891 34.7578 13.2422C34.1953 12.6953 33.7656 12.0625 33.4688 11.3438C33.1719 10.625 33.0156 9.84375 33 9H9C9 9.82812 8.84375 10.6016 8.53125 11.3203C8.21875 12.0391 7.78906 12.6797 7.24219 13.2422C6.69531 13.8047 6.0625 14.2344 5.34375 14.5312C4.625 14.8281 3.84375 14.9844 3 15V24ZM39 27C38.5781 27 38.1875 27.0781 37.8281 27.2344C37.4688 27.3906 37.1562 27.6016 36.8906 27.8672C36.625 28.1328 36.4062 28.4531 36.2344 28.8281C36.0625 29.2031 35.9844 29.5938 36 30H39V27ZM3 30H6C6 29.5781 5.92188 29.1875 5.76562 28.8281C5.60938 28.4688 5.39844 28.1562 5.13281 27.8906C4.86719 27.625 4.54688 27.4062 4.17188 27.2344C3.79688 27.0625 3.40625 26.9844 3 27V30ZM45 12H42V33H6V36H45V12ZM10.5 21C10.0938 21 9.74219 20.8516 9.44531 20.5547C9.14844 20.2578 9 19.9062 9 19.5C9 19.0938 9.14844 18.7422 9.44531 18.4453C9.74219 18.1484 10.0938 18 10.5 18C10.9062 18 11.2578 18.1484 11.5547 18.4453C11.8516 18.7422 12 19.0938 12 19.5C12 19.9062 11.8516 20.2578 11.5547 20.5547C11.2578 20.8516 10.9062 21 10.5 21ZM31.5 21C31.0938 21 30.7422 20.8516 30.4453 20.5547C30.1484 20.2578 30 19.9062 30 19.5C30 19.0938 30.1484 18.7422 30.4453 18.4453C30.7422 18.1484 31.0938 18 31.5 18C31.9062 18 32.2578 18.1484 32.5547 18.4453C32.8516 18.7422 33 19.0938 33 19.5C33 19.9062 32.8516 20.2578 32.5547 20.5547C32.2578 20.8516 31.9062 21 31.5 21Z" fill="#FEF7FF"></path>
    <path d="M16.5065 15.9674V12.7108L23.9502 11.2043V27H20.3391V15.0148L16.5065 15.9674Z" fill="white"></path>
  </symbol>
  <symbol fill="none" xmlns="http://www.w3.org/2000/svg" viewBox="0 0 39 39" id="scan_focus">
    <rect width="20" height="39" fill="#555555"></rect>
    <path d="M0 0H14.625V4.72727H4.875V14.1818H0V0Z" fill="#D9D9D9"></path>
    <path d="M39 39H24.375V34.2727H34.125V24.8182H39V39Z" fill="#D9D9D9"></path>
    <path d="M39 14.1818V0H24.375V4.72727H34.125V14.1818H39Z" fill="#D9D9D9"></path>
    <path d="M0 39V24.8182H4.875V34.2727H14.625V39H0Z" fill="#D9D9D9"></path>
  </symbol>
  <symbol fill="none" xmlns="http://www.w3.org/2000/svg" viewBox="0 0 39 39" id="money_exchange">
    <g clip-path="url(#clip0_140_1501)">
      <path d="M39 34.125L31.6875 39V36.5625H20.1094L24.9844 31.6875H31.6875V29.25L39 34.125ZM0 4.875L7.3125 0V2.4375H18.8906L14.0156 7.3125H7.3125V9.75L0 4.875ZM23.7412 0L0 23.7412L15.2588 39L39 15.2588L23.7412 0ZM3.38812 23.7412L23.7412 3.38812L35.6119 15.2588L15.2588 35.6119L3.38812 23.7412Z" fill="#FEF7FF"></path>
      <path d="M10.1652 23.7412L8.45898 25.4475L13.5534 30.5419L15.2596 28.8356L17.0634 30.5175L23.7421 23.7412C22.6117 24.8388 21.0948 25.4475 19.5192 25.4359C17.9436 25.4242 16.4359 24.7932 15.3218 23.679C14.2077 22.5649 13.5766 21.0572 13.565 19.4816C13.5533 17.9061 14.1621 16.3892 15.2596 15.2587L8.48336 21.9375L10.1652 23.7412Z" fill="#FEF7FF"></path>
      <path d="M30.5166 13.5769L25.4222 8.48248L23.7159 10.1887L21.9366 8.48248L15.2578 15.2587C16.3883 14.1612 17.9052 13.5525 19.4807 13.5641C21.0563 13.5757 22.564 14.2068 23.6781 15.3209C24.7923 16.435 25.4233 17.9428 25.4349 19.5183C25.4466 21.0939 24.8379 22.6108 23.7403 23.7412L30.5166 17.0625L28.8103 15.3562L30.5166 13.5769Z" fill="#FEF7FF"></path>
    </g>
    <defs>
      <clipPath id="clip0_140_1501">
        <rect width="39" height="39" fill="white"></rect>
      </clipPath>
    </defs>
  </symbol>
  <symbol fill="none" xmlns="http://www.w3.org/2000/svg" viewBox="0 0 45 45" id="pie_chart">
    <path d="M3 24C3 28.1534 4.23163 32.2135 6.53914 35.667C8.84665 39.1204 12.1264 41.812 15.9636 43.4015C19.8009 44.9909 24.0233 45.4068 28.0969 44.5965C32.1705 43.7862 35.9123 41.7861 38.8492 38.8492C41.7861 35.9123 43.7862 32.1705 44.5965 28.0969C45.4068 24.0233 44.9909 19.8009 43.4015 15.9636C41.812 12.1264 39.1204 8.84665 35.667 6.53914C32.2135 4.23163 28.1534 3 24 3L24 24L3 24Z" fill="white"></path>
    <path d="M-1.97882e-06 21C-1.73773e-06 18.2422 0.543181 15.5115 1.59853 12.9636C2.65388 10.4158 4.20073 8.10079 6.15076 6.15076C8.10079 4.20073 10.4158 2.65388 12.9636 1.59853C15.5115 0.543184 18.2422 1.73773e-06 21 1.97882e-06L21 21L-1.97882e-06 21Z" fill="#0F0F0F"></path>
  </symbol>
  <symbol fill="none" xmlns="http://www.w3.org/2000/svg" viewBox="0 0 40 39" id="bar_chart">
    <rect y="19.7697" width="6.66667" height="19.0636" rx="3.33333" fill="white"></rect>
    <rect x="11.668" y="12.0031" width="5.83333" height="26.8303" rx="2.91667" fill="white"></rect>
    <rect x="22.5" width="5.83333" height="38.8333" rx="2.91667" fill="white" fill-opacity="0.33"></rect>
    <rect x="33.332" y="15.5333" width="6.66667" height="23.3" rx="3.33333" fill="white"></rect>
  </symbol>
  <symbol fill="none" xmlns="http://www.w3.org/2000/svg" viewBox="0 0 48 48" id="fluent_money_model_2">
    <path d="M48 9V39H3V33H0V6H42V9H48ZM36 9C36 9.42188 36.0781 9.8125 36.2344 10.1719C36.3906 10.5312 36.6016 10.8438 36.8672 11.1094C37.1328 11.375 37.4531 11.5938 37.8281 11.7656C38.2031 11.9375 38.5938 12.0156 39 12V9H36ZM3 12C3.42188 12 3.8125 11.9219 4.17188 11.7656C4.53125 11.6094 4.84375 11.3984 5.10938 11.1328C5.375 10.8672 5.59375 10.5469 5.76562 10.1719C5.9375 9.79688 6.01562 9.40625 6 9H3V12ZM3 24C3.82812 24 4.60156 24.1562 5.32031 24.4688C6.03906 24.7812 6.67969 25.2109 7.24219 25.7578C7.80469 26.3047 8.23438 26.9375 8.53125 27.6562C8.82812 28.375 8.98438 29.1562 9 30H33C33 29.1719 33.1562 28.3984 33.4688 27.6797C33.7812 26.9609 34.2109 26.3203 34.7578 25.7578C35.3047 25.1953 35.9375 24.7656 36.6562 24.4688C37.375 24.1719 38.1562 24.0156 39 24V15C38.1719 15 37.3984 14.8438 36.6797 14.5312C35.9609 14.2188 35.3203 13.7891 34.7578 13.2422C34.1953 12.6953 33.7656 12.0625 33.4688 11.3438C33.1719 10.625 33.0156 9.84375 33 9H9C9 9.82812 8.84375 10.6016 8.53125 11.3203C8.21875 12.0391 7.78906 12.6797 7.24219 13.2422C6.69531 13.8047 6.0625 14.2344 5.34375 14.5312C4.625 14.8281 3.84375 14.9844 3 15V24ZM39 27C38.5781 27 38.1875 27.0781 37.8281 27.2344C37.4688 27.3906 37.1562 27.6016 36.8906 27.8672C36.625 28.1328 36.4062 28.4531 36.2344 28.8281C36.0625 29.2031 35.9844 29.5938 36 30H39V27ZM3 30H6C6 29.5781 5.92188 29.1875 5.76562 28.8281C5.60938 28.4688 5.39844 28.1562 5.13281 27.8906C4.86719 27.625 4.54688 27.4062 4.17188 27.2344C3.79688 27.0625 3.40625 26.9844 3 27V30ZM45 12H42V33H6V36H45V12ZM10.5 21C10.0938 21 9.74219 20.8516 9.44531 20.5547C9.14844 20.2578 9 19.9062 9 19.5C9 19.0938 9.14844 18.7422 9.44531 18.4453C9.74219 18.1484 10.0938 18 10.5 18C10.9062 18 11.2578 18.1484 11.5547 18.4453C11.8516 18.7422 12 19.0938 12 19.5C12 19.9062 11.8516 20.2578 11.5547 20.5547C11.2578 20.8516 10.9062 21 10.5 21ZM31.5 21C31.0938 21 30.7422 20.8516 30.4453 20.5547C30.1484 20.2578 30 19.9062 30 19.5C30 19.0938 30.1484 18.7422 30.4453 18.4453C30.7422 18.1484 31.0938 18 31.5 18C31.9062 18 32.2578 18.1484 32.5547 18.4453C32.8516 18.7422 33 19.0938 33 19.5C33 19.9062 32.8516 20.2578 32.5547 20.5547C32.2578 20.8516 31.9062 21 31.5 21ZM21 27C20.1719 27 19.3984 26.8438 18.6797 26.5312C17.9609 26.2188 17.3203 25.7891 16.7578 25.2422C16.1953 24.6953 15.7656 24.0625 15.4688 23.3438C15.1719 22.625 15.0156 21.8438 15 21V18C15 17.1719 15.1562 16.3984 15.4688 15.6797C15.7812 14.9609 16.2109 14.3203 16.7578 13.7578C17.3047 13.1953 17.9375 12.7656 18.6562 12.4688C19.375 12.1719 20.1562 12.0156 21 12C21.8281 12 22.6016 12.1562 23.3203 12.4688C24.0391 12.7812 24.6797 13.2109 25.2422 13.7578C25.8047 14.3047 26.2344 14.9375 26.5312 15.6562C26.8281 16.375 26.9844 17.1562 27 18V21C27 21.8281 26.8438 22.6016 26.5312 23.3203C26.2188 24.0391 25.7891 24.6797 25.2422 25.2422C24.6953 25.8047 24.0625 26.2344 23.3438 26.5312C22.625 26.8281 21.8438 26.9844 21 27ZM18 21C18 21.4219 18.0781 21.8125 18.2344 22.1719C18.3906 22.5312 18.6016 22.8438 18.8672 23.1094C19.1328 23.375 19.4531 23.5938 19.8281 23.7656C20.2031 23.9375 20.5938 24.0156 21 24C21.4219 24 21.8125 23.9219 22.1719 23.7656C22.5312 23.6094 22.8438 23.3984 23.1094 23.1328C23.375 22.8672 23.5938 22.5469 23.7656 22.1719C23.9375 21.7969 24.0156 21.4062 24 21V18C24 17.5781 23.9219 17.1875 23.7656 16.8281C23.6094 16.4688 23.3984 16.1562 23.1328 15.8906C22.8672 15.625 22.5469 15.4062 22.1719 15.2344C21.7969 15.0625 21.4062 14.9844 21 15C20.5781 15 20.1875 15.0781 19.8281 15.2344C19.4688 15.3906 19.1562 15.6016 18.8906 15.8672C18.625 16.1328 18.4062 16.4531 18.2344 16.8281C18.0625 17.2031 17.9844 17.5938 18 18V21Z" fill="#FEF7FF"></path>
  </symbol>
  <symbol fill="none" xmlns="http://www.w3.org/2000/svg" viewBox="0 0 42 42" id="money_deposit">
    <g clip-path="url(#clip0_960_791)">
      <path d="M21 1.97882e-06L26.25 7.875L23.625 7.875L23.625 13.125L18.375 13.125L18.375 7.875L15.75 7.875L21 1.97882e-06ZM2.625 39.375L2.625 18.375L39.375 18.375L39.375 39.375L2.625 39.375ZM-3.8147e-06 42L42 42L42 15.75L-1.51985e-06 15.75L-3.8147e-06 42Z" fill="white"></path>
      <path d="M21 36.75C18.9114 36.75 16.9084 35.9203 15.4315 34.4435C13.9547 32.9666 13.125 30.9636 13.125 28.875C13.125 26.7864 13.9547 24.7834 15.4315 23.3065C16.9084 21.8297 18.9114 21 21 21L7.875 21L7.875 23.625L5.25 23.625L5.25 34.125H7.875L7.875 36.75L21 36.75ZM28.875 28.875C28.875 30.9636 28.0453 32.9666 26.5685 34.4435C25.0916 35.9203 23.0886 36.75 21 36.75L34.125 36.75V34.125H36.75V23.625L34.125 23.625V21L21 21C23.0886 21 25.0916 21.8297 26.5685 23.3065C28.0453 24.7834 28.875 26.7864 28.875 28.875Z" fill="white"></path>
      <path d="M20.4526 34V33.0361C19.2496 33.0241 18.0947 32.8795 17 32.6506V30.6265C18.1188 30.8795 19.3459 31.0602 20.4526 31.0964V29.9518C19.1173 29.8795 17.0361 29.5904 17.0361 27.6145V27.4578C17.0361 26.2169 17.818 25.1084 20.4526 24.9759V24H21.5353V24.9639C22.582 24.9759 23.6045 25.1205 24.5549 25.3614V27.2289C23.5444 27.0602 22.5459 26.9398 21.5353 26.9157V28.0482C22.8226 28.1084 25 28.3976 25 30.3976V30.5542C25 31.7952 24.206 32.9157 21.5353 33.0361V34H20.4526ZM22.8346 30.5301C22.8346 30.1325 22.4737 30.0241 21.5353 29.988V31.0964C22.7263 31.0361 22.8346 30.759 22.8346 30.5301ZM19.2015 27.4578C19.2015 27.8554 19.5624 27.9759 20.4526 28.0241V26.9157C19.2857 26.988 19.2015 27.2651 19.2015 27.4578Z" fill="white"></path>
    </g>
    <defs>
      <clipPath id="clip0_960_791">
        <rect width="42" height="42" fill="white" transform="translate(42 42) rotate(-180)"></rect>
      </clipPath>
    </defs>
  </symbol>
</svg>