<svg width="32" height="32" viewBox="50 60 260 70" fill="none" xmlns="http://www.w3.org/2000/svg"
            >
                <g filter="url(#filter0_d_2059_1530)">
                    <path
                        fill-rule="evenodd"
                        clip-rule="evenodd"
                        d="M149.396 98.7053L87.4949 160.681H132.852L182.275 111.667L182.312 111.632L185.835 115.329C182.312 111.632 182.313 111.63 182.314 111.629L182.317 111.627L182.323 111.62L182.339 111.606C182.351 111.595 182.365 111.582 182.381 111.566C182.414 111.536 182.457 111.496 182.509 111.448C182.614 111.353 182.757 111.224 182.938 111.068C183.299 110.755 183.81 110.327 184.458 109.824C185.752 108.821 187.615 107.501 189.948 106.182C194.576 103.567 201.303 100.821 209.244 100.821C217.184 100.821 223.911 103.567 228.539 106.182C230.872 107.501 232.735 108.821 234.029 109.824C234.678 110.327 235.188 110.755 235.549 111.068C235.73 111.224 235.873 111.353 235.978 111.448C236.03 111.496 236.073 111.536 236.106 111.566C236.117 111.577 236.127 111.586 236.136 111.594L236.148 111.606L236.164 111.62L236.17 111.627L236.173 111.629C236.174 111.63 236.175 111.632 232.652 115.329L236.175 111.632L236.212 111.667L295.935 170.895H223.789L181.096 128.864L188.425 121.596L227.973 160.681H271.129L229.113 119.013C229.108 119.008 229.104 119.004 229.098 118.999C229.052 118.957 228.97 118.883 228.854 118.783C228.623 118.582 228.257 118.275 227.769 117.897C226.79 117.137 225.34 116.107 223.514 115.075C219.823 112.99 214.846 111.036 209.244 111.036C203.642 111.036 198.664 112.99 194.974 115.075C193.148 116.107 191.697 117.137 190.718 117.897C190.23 118.275 189.864 118.582 189.633 118.783C189.517 118.883 189.435 118.957 189.389 118.999C189.384 119.004 189.379 119.009 189.374 119.013L137.058 170.895H62.8574L134.95 98.7053H149.396ZM189.345 119.039C189.343 119.041 189.344 119.041 189.346 119.038L189.345 119.039ZM229.142 119.039L229.141 119.038C229.143 119.041 229.144 119.041 229.142 119.039Z"
                        fill="white"
                    />
                    <path
                        fill-rule="evenodd"
                        clip-rule="evenodd"
                        d="M149.396 84.1902L87.4949 22.215L132.852 22.215L182.275 71.2286L182.312 71.2638L185.835 67.5662C182.312 71.2638 182.313 71.2651 182.314 71.2663L182.317 71.269L182.323 71.275L182.339 71.2897C182.351 71.3006 182.365 71.3137 182.381 71.3291C182.414 71.3598 182.457 71.3994 182.509 71.4471C182.614 71.5426 182.757 71.671 182.938 71.8277C183.299 72.1408 183.81 72.5682 184.458 73.0712C185.752 74.0747 187.615 75.3949 189.948 76.7134C194.576 79.3284 201.303 82.0747 209.244 82.0747C217.184 82.0747 223.911 79.3284 228.539 76.7134C230.872 75.3949 232.735 74.0747 234.029 73.0712C234.678 72.5682 235.188 72.1408 235.549 71.8277C235.73 71.671 235.873 71.5426 235.978 71.4471C236.03 71.3994 236.073 71.3598 236.106 71.3291C236.117 71.3188 236.127 71.3094 236.136 71.3011L236.148 71.2897L236.164 71.275L236.17 71.269L236.173 71.2663C236.174 71.2651 236.175 71.2638 232.652 67.5662L236.175 71.2638L236.212 71.2286L295.935 12H223.789L181.096 54.0314L188.425 61.2999L227.973 22.215H271.129L229.113 63.883C229.108 63.887 229.104 63.8915 229.098 63.8964C229.052 63.9387 228.97 64.0122 228.854 64.1126C228.623 64.3136 228.257 64.6207 227.769 64.9989C226.79 65.7582 225.34 66.7882 223.514 67.82C219.823 69.9055 214.846 71.8598 209.244 71.8598C203.642 71.8598 198.664 69.9055 194.974 67.82C193.148 66.7882 191.697 65.7582 190.718 64.9989C190.23 64.6207 189.864 64.3136 189.633 64.1126C189.517 64.0122 189.435 63.9386 189.389 63.8964C189.384 63.8915 189.379 63.887 189.374 63.8829L137.058 12H62.8574L134.95 84.1902H149.396ZM189.345 63.8563C189.343 63.8544 189.344 63.8548 189.346 63.8572L189.345 63.8563ZM229.142 63.8563L229.141 63.8572C229.143 63.8548 229.144 63.8544 229.142 63.8563Z"
                        fill="white"
                    />
                    <path
                        d="M173.544 39.86H185.374L197.467 25.5789H161.451L173.544 39.86Z"
                        fill="white"
                    />
                    <path
                        d="M55.5195 84.1082C60.4081 69.068 69.3886 55.8733 81.1471 45.8378L90.3759 56.7369C81.7855 64.0788 74.9815 73.4501 70.7063 84.1082H55.5195Z"
                        fill="white"
                    />
                    <path
                        d="M303.376 84.1082C298.489 69.0738 289.513 55.8834 277.762 45.8493L268.533 56.7485C277.117 64.0887 283.916 73.4557 288.189 84.1082H303.376Z"
                        fill="white"
                    />
                    <path
                        d="M55.4443 98.6235C60.1237 113.165 68.6244 125.991 79.7637 135.921L88.996 125.018C80.9947 117.812 74.653 108.8 70.6134 98.6235H55.4443Z"
                        fill="white"
                    />
                    <path
                        d="M288.283 98.6235C284.245 108.795 277.908 117.803 269.913 125.006L279.146 135.909C290.279 125.981 298.774 113.159 303.452 98.6235H288.283Z"
                        fill="white"
                    />
                    <path
                        d="M187.781 143.106L199.873 157.387H159.046L171.139 143.106H187.781Z"
                        fill="white"
                    />
                </g>
                <defs>
                    <filter
                        id="filter0_d_2059_1530"
                        x="0.412288"
                        y="0.294124"
                        width="359.957"
                        height="271.389"
                        filterUnits="userSpaceOnUse"
                        color-interpolation-filters="sRGB"
                    >
                        <feFlood
                            flood-opacity="0"
                            result="BackgroundImageFix"
                        />
                        <feColorMatrix
                            in="SourceAlpha"
                            type="matrix"
                            values="0 0 0 0 0 0 0 0 0 0 0 0 0 0 0 0 0 0 127 0"
                            result="hardAlpha"
                        />
                        <feOffset />
                        <feGaussianBlur stdDeviation="5.85294" />
                        <feComposite
                            in2="hardAlpha"
                            operator="out"
                        />
                        <feColorMatrix
                            type="matrix"
                            values="0 0 0 0 0.396078 0 0 0 0 0.172549 0 0 0 0 0.870588 0 0 0 0.5 0"
                        />
                        <feBlend
                            mode="normal"
                            in2="BackgroundImageFix"
                            result="effect1_dropShadow_2059_1530"
                        />
                        <feBlend
                            mode="normal"
                            in="SourceGraphic"
                            in2="effect1_dropShadow_2059_1530"
                            result="shape"
                        />
                    </filter>
                </defs>
            </svg>