<svg width="34" height="34" viewBox="0 0 34 34" fill="none" xmlns="http://www.w3.org/2000/svg">
<path d="M16.9993 24.0833C16.2479 24.0833 15.5272 23.7848 14.9959 23.2535C14.4645 22.7221 14.166 22.0014 14.166 21.25C14.166 19.6775 15.4268 18.4167 16.9993 18.4167C17.7508 18.4167 18.4715 18.7152 19.0028 19.2465C19.5342 19.7779 19.8327 20.4985 19.8327 21.25C19.8327 22.0014 19.5342 22.7221 19.0028 23.2535C18.4715 23.7848 17.7508 24.0833 16.9993 24.0833ZM25.4993 28.3333V14.1667H8.49935V28.3333H25.4993ZM25.4993 11.3333C26.2508 11.3333 26.9715 11.6318 27.5028 12.1632C28.0342 12.6945 28.3327 13.4152 28.3327 14.1667V28.3333C28.3327 29.0848 28.0342 29.8054 27.5028 30.3368C26.9715 30.8681 26.2508 31.1667 25.4993 31.1667H8.49935C7.7479 31.1667 7.02723 30.8681 6.49588 30.3368C5.96453 29.8054 5.66602 29.0848 5.66602 28.3333V14.1667C5.66602 12.5942 6.92685 11.3333 8.49935 11.3333H9.91602V8.49999C9.91602 6.62137 10.6623 4.8197 11.9907 3.49132C13.3191 2.16293 15.1207 1.41666 16.9993 1.41666C17.9295 1.41666 18.8506 1.59987 19.71 1.95584C20.5694 2.31181 21.3503 2.83357 22.008 3.49132C22.6658 4.14907 23.1875 4.92993 23.5435 5.78932C23.8995 6.6487 24.0827 7.56979 24.0827 8.49999V11.3333H25.4993ZM16.9993 4.24999C15.8722 4.24999 14.7912 4.69776 13.9941 5.49479C13.1971 6.29182 12.7493 7.37282 12.7493 8.49999V11.3333H21.2493V8.49999C21.2493 7.37282 20.8016 6.29182 20.0046 5.49479C19.2075 4.69776 18.1265 4.24999 16.9993 4.24999Z" fill="#4619A6"/>
</svg>
